<?xml version="1.0" encoding="UTF-8"?><svg id="b" xmlns="http://www.w3.org/2000/svg" width="255.458" height="286" viewBox="0 0 255.458 286"><defs><style>.g{fill:#f4b467;}.h{fill:#d9d9d9;}.i{fill:#fff;}.j{fill:#e59d4e;}.k{fill:#fce0cd;}.l{fill:#efc0a0;}.m{fill:#645d5c;}</style></defs><g id="c"><g id="d"><path class="k" d="M182.063,87.268c1.71-1.53,4.23-2.28,6.59-1.92,2.35.35,4.5,1.77,5.58,3.71.76,1.36,1.01,2.91,1.15,4.42.52,5.95-.66,12.02-3.35,17.44-1.32,2.65-3.03,5.18-5.41,7.1-1.789,1.43-4.808,1.81-7.287,1.795-.581,2.439-1.343,4.561-1.686,5.602-2.125,5.767-15.342,28.21-31.001,31.69l-32.772,2.101c-10.295-1.46-19.747-8.015-27.549-17.353-5.877-7.034-9.08-14.894-10.908-21.697-.396.099-.615.154-.615.154-3.282.82-5.866-.831-7.696-2.29-2.382-1.926-4.095-4.456-5.409-7.099-2.699-5.425-3.872-11.492-3.356-17.446.141-1.51.387-3.059,1.15-4.418,1.079-1.938,3.227-3.361,5.585-3.713s4.881.39,6.582,1.926c0,0-.051-49.716,54.764-49.716,60.741,0,55.636,49.714,55.636,49.714Z"/><path class="m" d="M55.766,114.945c.152-.466.327-.925.525-1.376.911-2.072,2.411-3.947,4.266-5.21.344.868.725,1.723,1.143,2.563,1.314,2.643,3.027,5.173,5.409,7.099,1.829,1.459,4.414,3.111,7.696,2.29,0,0,.214-.054.614-.156,1.828,6.803,5.031,14.665,10.909,21.699,1.164,1.393,2.364,2.724,3.599,3.985-2.035,5.775-7.226,11.336-12.502,14.507-4.122,2.478-8.366,4.115-13.512,3.501-.931-.111-1.909-.168-2.343-1-.627-1.2,1.339-3.404,2.457-5.554,1.327-2.552.53-6.68-.416-9.396-.946-2.716-2.522-5.16-3.843-7.715-2.447-4.734-4.033-9.911-4.658-15.203-.396-3.354-.388-6.845.656-10.034Z"/><path class="m" d="M191.569,55.327c1.428,9.758,2.234,23.436-1.555,32.174-.439-.161-.898-.273-1.364-.343-2.58-.385-5.356.539-7.038,2.378-8.189-2.599-17.005-14.694-20.179-20.129-2.345-4.015-5.536-13.202-7.467-20.004-9.163,11.519-24.317,18.902-40.128,22.563-3.787.918-.78-8.012.066-13.262-9.841,8.463-29.864,21.333-40.988,30.111-1.437-2.505-4.662-3.874-7.661-3.495-.933-4.564-1.922-9.405-1.922-9.405-1.409-6.087-1.595-19.133-.045-26.758C69.008,20.886,97.263-1.555,126.893.084c29.631-1.64,57.886,20.802,63.607,49.073.356,1.756.73,3.852,1.069,6.169Z"/><path class="i" d="M39.349,235.926c1.37,4.38-3.055,12.708-5.328,14.681-3.882,3.368-7.422,4.856-12.482,4.952-4.889.093-10.702-1.122-14.173-5.14-2.92-3.381-4.352-5.728-5.025-11.86-.312-2.842.842-11.847,3.255-16.249l33.752,13.616Z"/><path class="h" d="M28.095,251.755c-3.094,1.469-6.717,1.665-10.076,1.238-3.142-.4-6.362-1.521-8.583-3.862-1.801-1.898-3.232-4.046-3.932-6.522-.975-3.449-.9-6.804-.349-10.321.201-1.279-.327-2.582-1.676-2.952-1.14-.313-2.75.388-2.952,1.676-.959,6.112-.91,12.716,2.724,18.027,1.71,2.5,3.767,4.803,6.445,6.281,2.881,1.591,6.134,2.335,9.396,2.573,3.944.288,7.844-.295,11.426-1.995,1.171-.556,1.475-2.233.861-3.284-.701-1.198-2.108-1.419-3.284-.861h0Z"/><path class="i" d="M249.85,222.31c2.413,4.402,3.567,13.407,3.255,16.249-.673,6.132-2.104,8.479-5.025,11.86-3.471,4.018-9.284,5.233-14.173,5.14-5.06-.096-8.599-1.584-12.482-4.952-2.273-1.972-6.698-10.301-5.328-14.681l33.752-13.616Z"/><path class="h" d="M224.988,255.928c5.928,2.786,13.297,2.709,19.29.107,5.156-2.238,9.126-7.37,10.462-12.792.938-3.81.857-7.396.328-11.253-.176-1.285-1.821-1.987-2.952-1.676-1.386.381-1.853,1.663-1.676,2.952.458,3.338.375,6.567-.633,9.804-.734,2.358-2.251,4.537-4.053,6.323-2.192,2.172-5.319,3.217-8.327,3.599-3.334.424-6.939.237-10.016-1.209-1.172-.551-2.588-.328-3.284.861-.609,1.042-.317,2.73.861,3.284h0Z"/><g id="e"><path class="l" d="M115.818,133.104c3.086,3.021,7.982,3.892,12.121,3.889s9.036-.867,12.124-3.889c2.211-2.164-1.184-5.557-3.394-3.394-.1.098-.606.528-.317.299.268-.213-.385.257-.538.351-.27.166-.549.319-.832.461-.19.096-.384.187-.579.272.322-.139-.041.013-.18.063-2.037.734-4.123,1.036-6.284,1.038-2.109.001-4.185-.273-6.174-.995-.018-.006-.725-.293-.293-.105-.164-.071-.325-.148-.485-.226-.315-.155-.624-.323-.923-.507-.23-.142-.445-.3-.668-.452.605.413-.037-.053-.184-.198-2.209-2.163-5.606,1.229-3.394,3.394h0Z"/><path class="l" d="M127.42,110.207c.463,1.766.908,3.561,1.173,5.369l-.086-.638c.031.248.045.492.02.741l.086-.638c-.018.115-.043.223-.082.333l.242-.573c-.034.078-.07.144-.118.214l.375-.486c-.055.067-.108.119-.175.173l.486-.375c-.136.087-.279.158-.425.225l.573-.242c-.234.098-.466.169-.717.209l.638-.086c-.226.027-.447.025-.673-.001l.638.086c-.254-.035-.503-.097-.756-.131-.67-.09-1.239-.115-1.849.242-.498.291-.973.862-1.103,1.434-.14.614-.11,1.304.242,1.849.312.484.835,1.022,1.434,1.103.546.074,1.076.214,1.631.238.836.037,1.616-.216,2.364-.556.916-.417,1.628-1.221,1.872-2.208.206-.834.115-1.583-.026-2.418-.292-1.73-.692-3.444-1.137-5.14-.318-1.214-1.729-2.072-2.952-1.676-1.25.404-2.018,1.651-1.676,2.952h0Z"/><path class="m" d="M98.849,95.723c-.897,2.913-.312,9.616,5.207,10.186,7.295-.044,7.683-8.147,5.228-11.957-2.011-3.119-7.923-4.417-10.435,1.771Z"/><path class="m" d="M156.018,95.723c.897,2.914.313,9.616-5.207,10.186-7.295-.044-7.684-8.147-5.228-11.957,2.011-3.119,7.923-4.416,10.435,1.771Z"/></g><g id="f"><path class="g" d="M125.535,155.521c-14.593-9.78-72.103-20.327-87.286-20.675-1.107-.025-2.013.859-2.015,1.966-.034,18.082-.338,106.275-.441,123.784-.006.993.792,1.878,1.781,1.961,14.257,1.188,74.379,16.755,87.984,23.049,1.144.529,3.007.523,4.147-.014,13.566-6.39,73.281-22.264,88.124-23.053,1.012-.054,1.83-.941,1.824-1.955-.104-17.545-.407-105.774-.441-123.797-.002-1.065-.856-1.922-1.921-1.929-17.255-.124-72.25,11.616-87.609,20.8-1.16.694-3.025.615-4.148-.138Z"/><path class="i" d="M42.739,126.765c11.829.6,66.961,9.895,84.859,25.174,19.064-15.424,65.421-24.411,84.186-25.526.585-.035,1.074.435,1.074,1.021v7.589c-20.761,1.439-68.963,12.135-83.179,20.639-1.158.692-3.024.61-4.145-.141-13.671-9.162-64.997-18.995-83.915-20.49v-.046c0-2.089.031-5.511.048-7.217.006-.581.492-1.031,1.072-1.002Z"/><path class="j" d="M125.455,164.555c0,12.549-.053,25.097-.089,37.646-.05,17.217-.102,34.434-.142,51.651-.016,6.938-.032,13.877-.032,20.815,0,3.089,4.8,3.094,4.8,0,0-14.265.049-28.53.089-42.795.046-16.733.099-33.467.142-50.2.015-5.706.032-11.411.032-17.117,0-3.089-4.8-3.094-4.8,0h0Z"/></g><path class="k" d="M10.63,196.679c1.133-1.458,2.651-3.454,4.209-4.233,4.773-3.903,15.467-2.589,20.526-.904,3.616,1.204,8.204,3.092,10.464,6.211,2.156,2.976,2.357,6.812-2.965,7.678,2.139.977,4.26,2.282,5.262,3.938,1.861,3.076,1.063,6.874-2.511,8.398,3.217,2.055,5.398,9.718-1.768,10.769,2.483,3.82,1.167,6.548-2.142,7.375-2.871.718-7.579-.698-12.415.961-6.028,2.966-11.534,2.635-15.431-.144-6.068-4.328-7.766-12.159-7.812-20.507-.022-4.071.175-8.388,1.263-12.326.586-2.121,1.397-4.816,2.81-6.567.159-.198.33-.416.51-.647Z"/><path class="k" d="M244.817,196.679c-1.133-1.458-2.651-3.454-4.209-4.233-4.773-3.903-15.467-2.589-20.526-.904-3.616,1.204-8.204,3.092-10.464,6.211-2.156,2.976-2.357,6.812,2.965,7.678-2.139.977-4.26,2.282-5.262,3.938-1.861,3.076-1.063,6.874,2.511,8.398-3.217,2.055-5.398,9.718,1.768,10.769-2.483,3.82-1.167,6.548,2.142,7.375,2.871.718,7.579-.698,12.415.961,6.028,2.966,11.534,2.635,15.431-.144,6.068-4.328,7.766-12.159,7.812-20.507.022-4.071-.175-8.388-1.263-12.326-.586-2.121-1.397-4.816-2.81-6.567-.159-.198-.33-.416-.51-.647Z"/></g></g></svg>