<?xml version="1.0" encoding="UTF-8"?><svg id="b" xmlns="http://www.w3.org/2000/svg" width="255.673" height="290.796" viewBox="0 0 255.673 290.796"><defs><style>.g{fill:#f4b467;}.h{fill:#211715;}.i{fill:#fff;}.j{fill:#645d5c;}</style></defs><g id="c"><g id="d"><path class="i" d="M182.17,89.672c1.71-1.53,4.23-2.28,6.59-1.92,2.35.35,4.5,1.77,5.58,3.71.76,1.36,1.01,2.91,1.15,4.42.52,5.95-.66,12.02-3.35,17.44-1.32,2.65-3.03,5.18-5.41,7.1-1.789,1.43-4.808,1.81-7.287,1.795-.581,2.439-1.343,4.561-1.686,5.602-2.125,5.767-15.342,28.21-31.001,31.69,0,0-6.457,2.293-15.148,2.782-9.889.556-17.623-.68-17.623-.68-10.295-1.46-19.747-8.015-27.549-17.353-5.877-7.034-9.08-14.894-10.908-21.697-.396.099-.615.154-.615.154-3.282.82-5.866-.831-7.696-2.29-2.382-1.926-4.095-4.456-5.409-7.099-2.699-5.425-3.872-11.492-3.356-17.446.141-1.51.387-3.059,1.15-4.418,1.079-1.938,3.227-3.361,5.585-3.713s4.881.39,6.582,1.926c0,0-.051-49.716,54.764-49.716,60.741,0,55.636,49.714,55.636,49.714Z"/><path class="j" d="M191.505,56.595c-.29-1.867-.599-3.566-.894-5.03C184.89,23.295,156.63.845,127,2.485c-29.63-1.64-57.89,20.81-63.61,49.08-1.55,7.62-1.36,20.67.05,26.75l2.528,9.362c2.817-.142,5.713,1.206,7.056,3.54,11.125-8.778,31.145-21.646,40.985-30.108-.846,5.25-3.852,14.18-.066,13.262,15.811-3.661,30.965-11.044,40.128-22.563,1.931,6.802,5.123,15.989,7.468,20.004,2.979,5.102,10.931,16.073,18.673,19.552,1.136-.984,1.957-1.692,1.957-1.692,1.71-1.53,4.23-2.28,6.59-1.92.681.101,1.345.293,1.97.563,3.212-9.112,2.214-22.468.775-31.721Z"/><path class="j" d="M55.873,117.349c.152-.466.327-.925.525-1.376.911-2.072,2.411-3.947,4.266-5.21.344.868.725,1.723,1.143,2.563,1.314,2.643,3.027,5.173,5.409,7.099,1.829,1.459,4.414,3.111,7.696,2.29,0,0,.214-.054.614-.156,1.828,6.803,5.031,14.665,10.909,21.699,1.164,1.393,2.364,2.724,3.599,3.985-2.035,5.775-7.226,11.336-12.502,14.507-4.122,2.478-8.366,4.115-13.512,3.501-.931-.111-1.909-.168-2.343-1-.627-1.2,1.339-3.404,2.457-5.554,1.327-2.552.53-6.68-.416-9.396-.946-2.716-2.522-5.16-3.843-7.715-2.447-4.734-4.033-9.911-4.658-15.203-.396-3.354-.388-6.845.656-10.034Z"/><path class="h" d="M57.396,110.362c-5.23,5.315-5.348,13.002-4.166,19.92.626,3.668,1.735,7.212,3.209,10.625,1.363,3.154,3.333,6.013,4.647,9.183.947,2.286,1.956,5.616,1.101,8.064-.888,2.541-3.834,4.752-2.824,7.735,1.163,3.436,6.422,3.08,9.266,2.717,3.217-.411,6.231-1.589,9.051-3.167,6.462-3.615,12.002-9.424,14.616-16.409.454-1.214-.506-2.631-1.676-2.952-1.345-.37-2.496.458-2.952,1.676-1.919,5.131-6.114,9.592-10.68,12.509-2.243,1.433-4.636,2.65-7.232,3.286-1.255.307-2.501.444-3.794.428-.645-.008-1.303-.03-1.941-.127.049.007-.768-.093-.72-.144.461.225.666.549.615.971-.02.365.007.365.08.001.677-.908,1.234-2.065,1.812-3.054.771-1.318,1.212-2.661,1.365-4.179.261-2.591-.286-5.341-1.14-7.784-1.024-2.93-2.67-5.545-4.085-8.288-1.444-2.798-2.543-5.748-3.327-8.797-1.544-6.003-2.608-13.967,2.169-18.822,2.169-2.204-1.223-5.6-3.394-3.394h0Z"/><path class="h" d="M177.793,116.989c-.082,2.502-.684,4.939-1.412,7.324-.255.835-.53,1.664-.811,2.491-.068.199-.138.396-.208.594-.254.721.119-.224-.092.229-1.089,2.348-2.329,4.607-3.691,6.809-3.967,6.409-8.782,12.479-14.676,17.222-3.198,2.573-6.802,4.622-10.784,5.536-3.009.691-1.736,5.32,1.276,4.629,8.213-1.887,15.043-7.907,20.403-14.134,4.468-5.191,8.618-11.033,11.463-17.293,1.881-4.14,3.183-8.863,3.333-13.407.102-3.09-4.698-3.086-4.8,0h0Z"/><path class="h" d="M73.467,87.977c-3.265-2.788-7.717-3.489-11.635-1.665-4.046,1.884-5.504,5.823-5.815,10.014-.62,8.357,1.955,17.832,7.698,24.095,3.057,3.334,7.235,5.619,11.836,4.608,3.016-.663,1.739-5.291-1.276-4.629-3.259.716-6.273-2.083-8.09-4.468-2.538-3.33-4.088-7.475-4.902-11.55-.412-2.064-.579-4.163-.545-6.267.03-1.839.059-3.97,1.027-5.594,1.678-2.818,5.895-3.212,8.309-1.151.985.841,2.427.967,3.394,0,.862-.862.99-2.549,0-3.394h0Z"/><path class="h" d="M70.841,110.282c1.007,8.25,2.827,16.295,6.365,23.86,4.486,9.592,11.963,18.073,20.859,23.82,4.618,2.984,9.828,5.158,15.283,5.964,1.281.189,2.579-.319,2.952-1.676.311-1.131-.386-2.762-1.676-2.952-9.325-1.378-17.261-6.792-23.635-13.523-6.584-6.953-10.955-15.321-13.335-24.57-.519-2.018-.951-4.058-1.308-6.111-.162-.93-.308-1.862-.441-2.796-.097-.678-.144-1.04-.263-2.015-.157-1.286-.991-2.4-2.4-2.4-1.175,0-2.558,1.105-2.4,2.4h0Z"/><path class="h" d="M183.867,91.369c2.399-2.033,6.436-1.659,8.221,1.002,1.076,1.604,1.087,3.894,1.117,5.746.033,2.027-.118,4.054-.501,6.045-.782,4.059-2.295,8.061-4.705,11.441-.927,1.3-2.135,2.785-3.625,3.453-1.518.68-3.302.755-4.934.755-3.089,0-3.094,4.799,0,4.8,3.962,0,7.52-.859,10.365-3.744,2.912-2.954,4.868-6.776,6.234-10.656,1.406-3.993,2.086-8.309,1.957-12.542s-1.042-8.262-4.759-10.73c-3.983-2.645-9.211-1.975-12.763,1.035-.989.838-.863,2.531,0,3.394.98.98,2.402.841,3.394,0h0Z"/><path class="h" d="M65.755,77.677c-.726-3.212-.912-6.528-1.01-9.911-.116-4.017-.017-8.056.42-12.053.783-7.174,3.387-14.159,7.011-20.367,7.567-12.961,20.061-23.059,34.334-27.712,3.508-1.144,7.145-2.011,10.812-2.442,3.891-.458,7.762-.305,11.664-.38,7.599-.147,15.125,1.347,22.181,4.149,13.929,5.531,25.791,16.385,32.498,29.78,3.182,6.355,4.786,13.173,5.776,20.172,1.083,7.652,1.667,15.782.331,23.437-.316,1.809-.755,3.591-1.355,5.328-1.011,2.926,3.624,4.183,4.629,1.276,2.72-7.872,2.542-16.718,1.786-24.907-.693-7.505-1.832-15.138-4.576-22.193-5.871-15.095-17.622-27.668-32.057-34.949-7.28-3.672-15.167-5.994-23.296-6.694-2.027-.174-4.063-.242-6.097-.195-2.044.047-4.083-.046-6.129,0-4.075.091-8.161.618-12.134,1.523-15.855,3.611-30.052,13.466-39.456,26.661-4.622,6.484-8.055,13.915-9.791,21.696-1.726,7.738-1.796,16.111-.957,23.971.182,1.705.41,3.413.788,5.087.681,3.012,5.31,1.737,4.629-1.276h0Z"/><path class="h" d="M151.992,53.271c1.162,3.973,2.453,7.912,3.925,11.782,1.162,3.053,2.393,6.116,4.111,8.905,3.402,5.523,7.584,10.87,12.508,15.115,2.797,2.411,6,4.664,9.662,5.483,3.009.673,4.294-3.954,1.276-4.629-5.699-1.275-10.418-6.612-14.038-11.025-3.563-4.343-6.492-8.975-8.539-14.213-1.625-4.159-3.024-8.41-4.277-12.694-.865-2.959-5.499-1.7-4.629,1.276h0Z"/><path class="h" d="M152.534,49.91c-5.232,6.599-12.105,11.552-19.607,15.28-3.888,1.932-7.936,3.511-12.076,4.813-2.16.679-4.343,1.284-6.543,1.816-.266.064-.537.117-.801.19-.529.148.208.104-.006.024.157.059.66.208.95.561-.007-.008.222.388.091.152-.048-.086-.057-.248-.077-.349.115.579.013-.06.016-.179.083-3.369,1.259-6.94,1.845-10.471.394-2.376-2.115-3.96-4.011-2.335-4.944,4.236-10.283,8.009-15.586,11.776-6.044,4.294-12.149,8.501-18.145,12.864-2.95,2.147-5.878,4.331-8.708,6.635-1.006.819-.851,2.544,0,3.394.995.995,2.386.821,3.394,0,10.823-8.808,22.762-16.265,33.964-24.601,2.884-2.146,5.744-4.333,8.475-6.673l-4.011-2.335c-.622,3.745-1.907,7.469-2.013,11.285-.042,1.495.219,3.122,1.377,4.176,1.744,1.586,4.144.628,6.122.116,9.529-2.467,18.919-6.278,27.02-11.929,4.383-3.057,8.402-6.622,11.727-10.815.805-1.015.991-2.404,0-3.394-.835-.835-2.584-1.021-3.394,0h0Z"/><path class="i" d="M39.456,238.331c1.37,4.38-3.055,12.708-5.328,14.681-3.882,3.368-7.422,4.856-12.482,4.952-4.889.093-10.702-1.122-14.173-5.14-2.92-3.381-4.352-5.728-5.025-11.86-.312-2.842.842-11.847,3.255-16.249l33.752,13.616Z"/><path class="h" d="M37.142,238.969c.197.689.226,1.423.127,2.215-.143,1.145-.499,2.29-.886,3.373-.688,1.926-1.66,3.787-2.828,5.466-.345.495-.117.22-.482.633-.204.232-.415.45-.643.659-.979.897-2.096,1.667-3.247,2.325-2.128,1.216-4.49,1.801-6.93,1.905-4.847.207-10.009-.837-13.294-4.663-2.647-3.083-4.15-6.802-4.161-11.03-.006-2.281.321-4.575.759-6.809.476-2.427,1.081-4.983,2.218-7.116,1.453-2.725-2.689-5.152-4.145-2.423-2.47,4.633-3.449,10.452-3.62,15.657-.17,5.164,1.557,10.16,4.762,14.161,3.988,4.978,9.932,7.006,16.185,7.047,3.128.02,6.204-.504,9.066-1.785,2.377-1.064,4.89-2.687,6.581-4.696,1.839-2.186,3.15-4.787,4.177-7.437,1.051-2.713,1.808-5.882.988-8.756-.846-2.965-5.479-1.705-4.629,1.276h0Z"/><path class="i" d="M249.957,224.715c2.413,4.402,3.567,13.407,3.255,16.249-.673,6.132-2.104,8.479-5.025,11.86-3.471,4.018-9.284,5.233-14.173,5.14-5.06-.096-8.599-1.584-12.482-4.952-2.273-1.972-6.698-10.301-5.328-14.681l33.752-13.616Z"/><path class="h" d="M213.891,237.693c-.73,2.56-.192,5.364.65,7.83.827,2.424,1.956,4.817,3.421,6.922,3.254,4.677,8.882,7.362,14.463,7.838,5.997.512,12.98-.907,17.214-5.486,3.719-4.022,5.739-8.848,6.011-14.341.131-2.657-.316-5.404-.789-8.008-.557-3.068-1.355-6.177-2.831-8.944-1.454-2.727-5.599-.305-4.145,2.423,1.965,3.684,2.723,8.522,2.943,12.731.207,3.959-.816,7.971-3.158,11.047-1.427,1.874-3.138,3.488-5.372,4.445-2.165.927-4.555,1.327-6.897,1.405-4.742.157-9.557-1.261-12.813-4.899-1.047-1.17-2.346-3.606-3.08-5.483-.448-1.145-.813-2.331-1.039-3.54-.175-.941-.176-1.869.051-2.664.849-2.976-3.781-4.246-4.629-1.276h0Z"/><g id="e"><path class="h" d="M115.925,135.509c3.086,3.021,7.982,3.892,12.121,3.889s9.036-.867,12.124-3.889c2.211-2.164-1.184-5.557-3.394-3.394-.1.098-.606.528-.317.299.268-.213-.385.257-.538.351-.27.166-.549.319-.832.461-.19.096-.384.187-.579.272.322-.139-.041.013-.18.063-2.037.734-4.123,1.036-6.284,1.038-2.109.001-4.185-.273-6.174-.995-.018-.006-.725-.293-.293-.105-.164-.071-.325-.148-.485-.226-.315-.155-.624-.323-.923-.507-.23-.142-.445-.3-.668-.452.605.413-.037-.053-.184-.198-2.209-2.163-5.606,1.229-3.394,3.394h0Z"/><path class="h" d="M127.527,112.612c.463,1.766.908,3.561,1.173,5.369l-.086-.638c.031.248.045.492.02.741l.086-.638c-.018.115-.043.223-.082.333l.242-.573c-.034.078-.07.144-.118.214l.375-.486c-.055.067-.108.119-.175.173l.486-.375c-.136.087-.279.158-.425.225l.573-.242c-.234.098-.466.169-.717.209l.638-.086c-.226.027-.447.025-.673-.001l.638.086c-.254-.035-.503-.097-.756-.131-.67-.09-1.239-.115-1.849.242-.498.291-.973.862-1.103,1.434-.14.614-.11,1.304.242,1.849.312.484.835,1.022,1.434,1.103.546.074,1.076.214,1.631.238.836.037,1.616-.216,2.364-.556.916-.417,1.628-1.221,1.872-2.208.206-.834.115-1.583-.026-2.418-.292-1.73-.692-3.444-1.137-5.14-.318-1.214-1.729-2.072-2.952-1.676-1.25.404-2.018,1.651-1.676,2.952h0Z"/><path class="h" d="M98.956,98.127c-.897,2.913-.312,9.616,5.207,10.186,7.295-.044,7.683-8.147,5.228-11.957-2.011-3.119-7.923-4.417-10.435,1.771Z"/><path class="h" d="M156.125,98.127c.897,2.914.313,9.616-5.207,10.186-7.295-.044-7.684-8.147-5.228-11.957,2.011-3.119,7.923-4.416,10.435,1.771Z"/></g><g id="f"><path class="g" d="M125.642,157.926c-14.593-9.78-72.103-20.327-87.286-20.675-1.107-.025-2.013.859-2.015,1.966-.034,18.082-.338,106.275-.441,123.784-.006.993.792,1.878,1.781,1.961,14.257,1.188,74.379,16.755,87.984,23.049,1.144.529,3.007.523,4.147-.014,13.566-6.39,73.281-22.264,88.124-23.053,1.012-.054,1.83-.941,1.824-1.955-.104-17.545-.407-105.774-.441-123.797-.002-1.065-.856-1.922-1.921-1.929-17.255-.124-72.25,11.616-87.609,20.8-1.16.694-3.025.615-4.148-.138Z"/><path class="i" d="M42.846,129.17c11.829.6,66.961,9.895,84.859,25.174,19.064-15.424,65.421-24.411,84.186-25.526.585-.035,1.074.435,1.074,1.021v7.589c-20.761,1.439-68.963,12.135-83.179,20.639-1.158.692-3.024.61-4.145-.141-13.671-9.162-64.997-18.995-83.915-20.49v-.046c0-2.089.031-5.511.048-7.217.006-.581.492-1.031,1.072-1.002Z"/><path class="h" d="M44.127,137.389c.001-1.296.009-2.593.021-3.889.005-.541.01-1.082.015-1.623.003-.301.025-.607.009-.907-.05-.916.289-.03-.445.31l-1.211.328c1.536-.171,3.253.188,4.78.364.468.054.936.11,1.403.169.248.031.495.062.743.094.156.02.99.131.427.055,1.198.162,2.395.335,3.59.516,5.823.882,11.62,1.948,17.385,3.149,13.391,2.79,26.826,6.195,39.513,11.375,2.824,1.153,5.908,2.576,8.732,4.126,1.337.734,2.651,1.514,3.922,2.358.561.372,1.113.757,1.655,1.156.117.086.233.173.349.26.568.428-.356-.291.19.149.271.218.539.438.804.662,1.072.909,2.31.872,3.394,0,1.63-1.311,3.942-2.848,6.022-4.072,2.442-1.437,4.969-2.728,7.54-3.919,5.604-2.596,11.434-4.697,17.32-6.555,11.957-3.774,24.254-6.565,36.634-8.531,2.917-.463,5.243-.793,8.059-1.119,1.24-.144,2.481-.274,3.724-.386,1.14-.103,2.387-.329,3.526-.205l-1.211-.328c-.861-.407-.373-1.591-.451-.731-.025.275,0,.566,0,.842v2.633c0,1.277,0,2.555,0,3.832,0,3.089,4.8,3.094,4.8,0v-6.559c0-1.357-.056-2.641-1.146-3.648-1.304-1.204-3.155-.837-4.76-.703-6.217.521-12.408,1.446-18.548,2.54-15.129,2.695-30.279,6.451-44.537,12.25-7.205,2.93-14.276,6.366-20.367,11.263h3.394c-4.772-4.044-10.435-6.859-16.164-9.278-6.929-2.926-14.098-5.247-21.339-7.266-13.189-3.678-26.689-6.505-40.255-8.374-2.439-.336-4.883-.657-7.338-.859-1.784-.147-3.579-.057-4.543,1.76-.616,1.162-.397,2.76-.409,4.037-.015,1.574-.027,3.148-.028,4.722-.002,3.089,4.798,3.094,4.8,0h0Z"/><path class="h" d="M126.853,155.854c-3.609-2.399-7.796-3.982-11.854-5.436-5.502-1.972-11.135-3.58-16.789-5.051-12.489-3.249-25.169-5.83-37.904-7.902-5.193-.845-10.406-1.611-15.639-2.155-1.804-.187-3.612-.35-5.425-.428-1.598-.068-3.084.2-4.208,1.461-.985,1.106-1.093,2.456-1.096,3.856-.017,8.052-.043,16.104-.069,24.156-.038,11.923-.078,23.847-.12,35.77-.042,12.011-.086,24.022-.133,36.033-.032,8.315-.064,16.63-.108,24.946-.003.581-.028,1.167-.01,1.748.066,2.138,1.376,3.995,3.542,4.426.837.166,1.727.195,2.575.297.405.049-.566-.083.1.014.181.027.362.052.543.078.469.069.938.142,1.406.218,4.585.744,9.135,1.706,13.669,2.707,12.074,2.664,24.068,5.712,35.991,8.98,10.112,2.772,20.317,5.557,30.129,9.28.382.145.763.292,1.142.443.19.075.379.151.568.228.109.044.753.314.381.156-.324-.138.498.221.684.303.917.405,1.758.682,2.764.781,1.72.169,3.185-.325,4.722-1.01.145-.065.292-.127.438-.192.086-.038.174-.074.26-.112.285-.124-.462.191-.168.072.386-.158.772-.317,1.16-.471,4.15-1.643,8.406-3.025,12.661-4.366,11.789-3.716,23.728-6.976,35.713-9.995,10.474-2.638,21.047-5.271,31.741-6.865.206-.031.412-.061.619-.09.237-.034.772-.104.211-.031.423-.055.846-.109,1.27-.156.73-.082,1.462-.13,2.193-.194,2.338-.207,4.18-1.76,4.332-4.195.039-.624.008-1.258.004-1.883-.018-3.424-.033-6.849-.048-10.273-.046-10.599-.086-21.197-.125-31.796-.046-12.396-.089-24.791-.13-37.187-.035-10.518-.069-21.035-.1-31.553-.01-3.353-.019-6.707-.026-10.06-.002-1.142.016-2.264-.545-3.308-.91-1.697-2.686-2.25-4.488-2.232-2.002.02-4.002.163-5.995.345-12.08,1.107-24.087,3.455-35.917,6.079-12.218,2.71-24.504,5.76-36.232,10.178-2.191.825-4.365,1.709-6.486,2.703-.863.404-1.717.829-2.552,1.289-.894.492-1.646.996-2.655.395-2.661-1.584-5.078,2.564-2.423,4.145,1.792,1.067,4.089,1.249,6.004.405.919-.405,1.775-.966,2.673-1.421,2.149-1.088,3.576-1.673,5.598-2.46,5.251-2.043,10.645-3.717,16.061-5.261,12.539-3.574,25.303-6.44,38.14-8.719,5.522-.98,10.681-1.795,16.006-2.357,2.105-.222,4.217-.405,6.333-.485.427-.016.854-.028,1.282-.034.183-.003.382.022.562-.004-.024.003.309.005.31,0-.056.181-.447-.297-.415-.288-.216-.061.023-.288-.064.025-.032.116,0,.311,0,.432,0,.311.001.622.002.934.018,8.057.044,16.114.069,24.17.037,11.712.077,23.423.118,35.135.041,11.844.084,23.688.131,35.533.032,8.304.064,16.608.107,24.912.003.617.006,1.235.01,1.852,0,.118-.017.254.002.37.07.419-.1.069.084-.013.503-.224.214-.166-.262-.129-1.804.14-3.601.395-5.388.669-4.688.72-9.34,1.683-13.972,2.697-11.994,2.624-23.897,5.685-35.721,8.986-9.881,2.758-19.851,5.548-29.425,9.262-.9.349-1.794.715-2.682,1.096-.314.134-.627.268-.937.411-.105.048-.562.219-.181.091-.38.127-.735.195-1.135.198-.406.003-.748-.061-1.137-.186.306.098.024.002-.122-.059-.48-.2-.955-.415-1.436-.615-.74-.309-1.485-.605-2.234-.89-4.169-1.587-8.43-2.938-12.692-4.249-11.562-3.556-23.255-6.7-34.985-9.647-10.297-2.586-20.656-5.134-31.127-6.924-1.774-.303-3.557-.578-5.346-.775-.124-.014-.777-.164-.864-.086.446-.399.45.965.505.021.037-.618.007-1.249.01-1.868.018-3.434.033-6.869.048-10.303.045-10.438.084-20.876.123-31.315.045-12.248.088-24.497.129-36.745.035-10.385.069-20.77.099-31.155.01-3.388.019-6.776.027-10.164,0-.295.189-1.566.004-1.774.329.369-.916.241.014.393.368.06.777.031,1.151.051,1.862.102,3.72.279,5.573.482,1.125.123,2.249.257,3.372.4.27.034.539.069.809.104.096.012.948.126.546.071.654.088,1.307.179,1.96.272,2.758.392,5.511.822,8.259,1.279,6.148,1.022,12.273,2.178,18.373,3.453,11.844,2.475,23.758,5.242,35.156,9.355,1.104.399,2.203.813,3.293,1.251.274.11.548.222.821.335.384.159-.201-.091.32.135.473.206.945.414,1.414.63,1.595.736,3.164,1.544,4.629,2.518,2.58,1.715,4.986-2.441,2.423-4.145Z"/><path class="h" d="M125.562,166.959c0,12.549-.053,25.097-.089,37.646-.05,17.217-.102,34.434-.142,51.651-.016,6.938-.032,13.877-.032,20.815,0,3.089,4.8,3.094,4.8,0,0-14.265.049-28.53.089-42.795.046-16.733.099-33.467.142-50.2.015-5.706.032-11.411.032-17.117,0-3.089-4.8-3.094-4.8,0h0Z"/></g><path class="i" d="M10.737,199.084c1.133-1.458,2.651-3.454,4.209-4.233,4.773-3.903,15.467-2.589,20.526-.904,3.616,1.204,8.204,3.092,10.464,6.211,2.156,2.976,2.357,6.812-2.965,7.678,2.139.977,4.26,2.282,5.262,3.938,1.861,3.076,1.063,6.874-2.511,8.398,3.217,2.055,5.398,9.718-1.768,10.769,2.483,3.82,1.167,6.548-2.142,7.375-2.871.718-7.579-.698-12.415.961-6.028,2.966-11.534,2.635-15.431-.144-6.068-4.328-7.766-12.159-7.812-20.507-.022-4.071.175-8.388,1.263-12.326.586-2.121,1.397-4.816,2.81-6.567.159-.198.33-.416.51-.647Z"/><path class="h" d="M44.883,209.857c2.717-.917,4.892-2.925,4.875-5.968-.015-2.552-1.472-4.998-3.261-6.727-3.657-3.533-9.143-5.513-14.065-6.47-4.858-.944-10.394-1.391-15.156.255-5.084,1.757-9.236,6.449-11.147,11.473-2.321,6.101-2.677,12.943-2.267,19.403.357,5.613,1.597,11.342,5.143,15.848,3.787,4.812,9.502,6.811,15.49,5.773,1.666-.289,3.251-.832,4.801-1.498,1.673-.719,3.302-1.052,5.127-1.108,2.741-.084,5.69.509,8.366-.302,3.181-.964,5.263-3.668,4.748-7.045-.504-3.312-2.894-5.365-5.893-6.496-3.082-1.162-6.474-1.939-9.766-2.033-3.881-.111-7.736.735-11.515,1.512-3.024.622-1.744,5.25,1.276,4.629,2.684-.553,5.378-1.156,8.122-1.309,2.719-.152,5.225.242,7.834.983,1.494.424,3.579.743,4.621,2.029.406.501.69,1.485.642,1.883-.064.537-.389.847-1.023,1.113-1.866.783-4.475.224-6.545.225-1.409,0-2.817.109-4.206.35-1.618.281-2.983.96-4.503,1.524-4.268,1.584-8.951,1.524-12.429-1.7-3.215-2.979-4.619-7.288-5.215-11.526-.726-5.157-.692-10.865.369-15.966.483-2.322,1.115-4.835,2.369-6.873,1.053-1.712,2.539-3.617,4.199-4.758,1.428-.981,2.83-1.675,4.76-2.052,1.96-.384,4.007-.383,5.995-.269,4.259.244,8.516,1.277,12.365,3.135,2.047.988,4.209,2.232,5.381,4.257.251.433.355.684.499,1.178.022.075.108.635.075.299.002.024-.034.758.027.391-.024.148-.073.345-.135.487.148-.341-.259.241-.062.046-.31.307-.693.516-1.169.677-2.911.983-1.662,5.621,1.276,4.629h0Z"/><path class="h" d="M20.232,207.494c2.947-.723,6.075-.676,9.084-.474,2.945.198,5.911.629,8.738,1.501,2.491.768,5.333,1.76,7.292,3.538,1.794,1.629,2.068,4.372-.179,5.718-2.647,1.586-.236,5.738,2.423,4.145,3.792-2.272,4.988-6.797,3.054-10.734-1.741-3.544-5.839-5.314-9.336-6.614s-7.152-1.933-10.851-2.265c-3.803-.341-7.771-.359-11.501.556-2.999.736-1.729,5.366,1.276,4.629h0Z"/><path class="h" d="M19.279,219.64c6.892-1.337,14.3-1.117,21.113.599,2.33.587,4.67,1.778,5.544,3.942.771,1.909.608,3.34-1.373,4.21-1.187.522-1.462,2.256-.861,3.284.716,1.224,2.092,1.385,3.284.861,3.397-1.493,4.661-5.082,3.9-8.551-.78-3.56-3.506-6.236-6.797-7.583-3.645-1.492-7.929-1.994-11.826-2.23-4.808-.29-9.525-.079-14.259.839-1.273.247-2.001,1.772-1.676,2.952.366,1.331,1.675,1.924,2.952,1.676h0Z"/><path class="i" d="M244.923,199.084c-1.133-1.458-2.651-3.454-4.209-4.233-4.773-3.903-15.467-2.589-20.526-.904-3.616,1.204-8.204,3.092-10.464,6.211-2.156,2.976-2.357,6.812,2.965,7.678-2.139.977-4.26,2.282-5.262,3.938-1.861,3.076-1.063,6.874,2.511,8.398-3.217,2.055-5.398,9.718,1.768,10.769-2.483,3.82-1.167,6.548,2.142,7.375,2.871.718,7.579-.698,12.415.961,6.028,2.966,11.534,2.635,15.431-.144,6.068-4.328,7.766-12.159,7.812-20.507.022-4.071-.175-8.388-1.263-12.326-.586-2.121-1.397-4.816-2.81-6.567-.159-.198-.33-.416-.51-.647Z"/><path class="h" d="M212.054,205.229c-.339-.115-.746-.296-.971-.479-.12-.098-.339-.426-.26-.244-.2-.464-.156-.37-.109-.878-.028.301.033-.134.04-.164.062-.273.144-.555.256-.812.712-1.64,2.404-2.949,3.993-3.877,3.44-2.006,7.427-3.226,11.362-3.767,3.584-.492,7.998-.675,11.258.761,3.53,1.555,6.503,5.406,7.731,9.218,1.67,5.183,1.948,10.634,1.69,16.045-.213,4.465-1.011,9.116-3.55,12.89-2.46,3.656-6.49,5.557-10.877,4.928-2.831-.406-5.245-1.996-8.038-2.472-2.735-.466-5.419-.263-8.17-.243-1.008.007-1.844.025-2.742-.415-.67-.328-.881-.689-.848-1.275.111-1.98,2.047-2.727,3.701-3.227,2.672-.807,5.303-1.483,8.114-1.464,3.18.022,6.29.712,9.39,1.35,1.268.261,2.593-.369,2.952-1.676.326-1.188-.401-2.69-1.676-2.952-3.373-.694-6.787-1.432-10.243-1.514-3.167-.076-6.168.586-9.191,1.448-2.62.747-5.258,1.81-6.739,4.244s-1.538,5.659.38,7.85c1.855,2.121,4.802,2.487,7.451,2.42,3.259-.082,6.348-.291,9.41,1.024,5.868,2.52,12.452,2.553,17.599-1.548,4.406-3.511,6.578-9.013,7.389-14.448.941-6.307.929-13.193-.569-19.41-.727-3.017-1.726-6.04-3.655-8.508-.813-1.041-1.605-2.108-2.507-3.074-.951-1.02-2.07-1.771-3.128-2.507-4.036-2.81-9.778-2.845-14.47-2.325-5.535.614-11.435,2.205-15.999,5.512-2.362,1.712-4.519,4.104-5.001,7.085-.567,3.506,1.525,6.044,4.752,7.134,2.933.99,4.192-3.644,1.276-4.629h0Z"/><path class="h" d="M236.705,202.866c-3.73-.915-7.698-.897-11.501-.556-3.699.331-7.362.967-10.851,2.265s-7.595,3.07-9.336,6.614c-1.934,3.937-.738,8.463,3.054,10.734,2.656,1.591,5.073-2.557,2.423-4.145-2.245-1.345-1.975-4.088-.179-5.718,1.959-1.778,4.8-2.77,7.292-3.538,2.827-.872,5.793-1.302,8.738-1.501,3.009-.203,6.137-.249,9.084.474,3,.736,4.279-3.892,1.276-4.629h0Z"/><path class="h" d="M237.658,215.011c-4.734-.918-9.452-1.131-14.259-.839-3.897.237-8.181.738-11.826,2.23-3.291,1.347-6.017,4.025-6.797,7.583-.76,3.469.502,7.057,3.9,8.551,1.186.521,2.577.347,3.284-.861.596-1.019.332-2.759-.861-3.284-1.98-.87-2.151-2.284-1.373-4.21.874-2.164,3.215-3.352,5.544-3.942,6.807-1.723,14.226-1.935,21.113-.599,1.271.247,2.59-.359,2.952-1.676.323-1.176-.397-2.704-1.676-2.952h0Z"/></g></g></svg>